<svg id="visual" viewBox="0 0 900 600" width="900" height="600" xmlns="http://www.w3.org/2000/svg" xmlns:xlink="http://www.w3.org/1999/xlink" version="1.1"><rect x="0" y="0" width="900" height="600" fill="#FFFFFF"></rect><defs><linearGradient id="grad1_0" x1="33.3%" y1="100%" x2="100%" y2="0%"><stop offset="20%" stop-color="#ffffff" stop-opacity="1"></stop><stop offset="80%" stop-color="#ffffff" stop-opacity="1"></stop></linearGradient></defs><defs><linearGradient id="grad2_0" x1="0%" y1="100%" x2="66.7%" y2="0%"><stop offset="20%" stop-color="#ffffff" stop-opacity="1"></stop><stop offset="80%" stop-color="#ffffff" stop-opacity="1"></stop></linearGradient></defs><g transform="translate(900, 600)"><path d="M-351.5 0C-332.9 -31 -314.3 -62.1 -306.2 -99.5C-298.2 -136.9 -300.8 -180.7 -278.3 -202.2C-255.8 -223.7 -208.2 -222.9 -178.1 -245.1C-148 -267.4 -135.4 -312.8 -108.6 -334.3C-81.9 -355.9 -40.9 -353.7 0 -351.5L0 0Z" fill="#0c024f"></path></g><g transform="translate(0, 0)"><path d="M351.5 0C334.3 32.8 317 65.6 305.3 99.2C293.6 132.8 287.4 167.3 271 196.9C254.6 226.5 228 251.3 199.8 275.1C171.7 298.9 142.2 321.7 108.6 334.3C75.1 346.9 37.5 349.2 0 351.5L0 0Z" fill="#0c024f"></path></g></svg>