<svg id="visual" viewBox="0 0 900 600" width="900" height="600" xmlns="http://www.w3.org/2000/svg" xmlns:xlink="http://www.w3.org/1999/xlink" version="1.1"><rect x="0" y="0" width="900" height="600" fill="#FFFFFF"></rect><defs><linearGradient id="grad1_0" x1="33.3%" y1="100%" x2="100%" y2="0%"><stop offset="20%" stop-color="#ffffff" stop-opacity="1"></stop><stop offset="80%" stop-color="#ffffff" stop-opacity="1"></stop></linearGradient></defs><defs><linearGradient id="grad2_0" x1="0%" y1="100%" x2="66.7%" y2="0%"><stop offset="20%" stop-color="#ffffff" stop-opacity="1"></stop><stop offset="80%" stop-color="#ffffff" stop-opacity="1"></stop></linearGradient></defs><g transform="translate(900, 600)"><path d="M-270.4 0C-266.7 -35.5 -262.9 -71.1 -249.8 -103.5C-236.8 -135.9 -214.4 -165.2 -188.1 -188.1C-161.8 -211 -131.5 -227.5 -99.5 -240.2C-67.5 -252.9 -33.7 -261.6 0 -270.4L0 0Z" fill="#0c024f"></path></g><g transform="translate(0, 0)"><path d="M270.4 0C262 34.6 253.5 69.3 238.4 98.7C223.2 128.2 201.3 152.4 178.9 178.9C156.4 205.4 133.4 234.2 103.5 249.8C73.6 265.5 36.8 267.9 0 270.4L0 0Z" fill="#0c024f"></path></g></svg>