<svg id="visual" viewBox="0 0 900 600" width="900" height="600" xmlns="http://www.w3.org/2000/svg" xmlns:xlink="http://www.w3.org/1999/xlink" version="1.1"><path d="M0 495L21.5 491.5C43 488 86 481 128.8 475C171.7 469 214.3 464 257.2 469.2C300 474.3 343 489.7 385.8 498.7C428.7 507.7 471.3 510.3 514.2 503.7C557 497 600 481 642.8 473.5C685.7 466 728.3 467 771.2 465.8C814 464.7 857 461.3 878.5 459.7L900 458L900 601L878.5 601C857 601 814 601 771.2 601C728.3 601 685.7 601 642.8 601C600 601 557 601 514.2 601C471.3 601 428.7 601 385.8 601C343 601 300 601 257.2 601C214.3 601 171.7 601 128.8 601C86 601 43 601 21.5 601L0 601Z" fill="#131eba"></path><path d="M0 483L21.5 489.5C43 496 86 509 128.8 511.7C171.7 514.3 214.3 506.7 257.2 500.7C300 494.7 343 490.3 385.8 489.5C428.7 488.7 471.3 491.3 514.2 496.8C557 502.3 600 510.7 642.8 514.5C685.7 518.3 728.3 517.7 771.2 513C814 508.3 857 499.7 878.5 495.3L900 491L900 601L878.5 601C857 601 814 601 771.2 601C728.3 601 685.7 601 642.8 601C600 601 557 601 514.2 601C471.3 601 428.7 601 385.8 601C343 601 300 601 257.2 601C214.3 601 171.7 601 128.8 601C86 601 43 601 21.5 601L0 601Z" fill="#15159a"></path><path d="M0 538L21.5 536.7C43 535.3 86 532.7 128.8 534.2C171.7 535.7 214.3 541.3 257.2 545C300 548.7 343 550.3 385.8 550.2C428.7 550 471.3 548 514.2 544.7C557 541.3 600 536.7 642.8 534C685.7 531.3 728.3 530.7 771.2 533.5C814 536.3 857 542.7 878.5 545.8L900 549L900 601L878.5 601C857 601 814 601 771.2 601C728.3 601 685.7 601 642.8 601C600 601 557 601 514.2 601C471.3 601 428.7 601 385.8 601C343 601 300 601 257.2 601C214.3 601 171.7 601 128.8 601C86 601 43 601 21.5 601L0 601Z" fill="#130b7c"></path><path d="M0 563L21.5 565.8C43 568.7 86 574.3 128.8 576.5C171.7 578.7 214.3 577.3 257.2 574.7C300 572 343 568 385.8 565.5C428.7 563 471.3 562 514.2 559.3C557 556.7 600 552.3 642.8 554.2C685.7 556 728.3 564 771.2 567C814 570 857 568 878.5 567L900 566L900 601L878.5 601C857 601 814 601 771.2 601C728.3 601 685.7 601 642.8 601C600 601 557 601 514.2 601C471.3 601 428.7 601 385.8 601C343 601 300 601 257.2 601C214.3 601 171.7 601 128.8 601C86 601 43 601 21.5 601L0 601Z" fill="#0e0460"></path></svg>