<svg id="visual" viewBox="0 0 900 600" width="900" height="600" xmlns="http://www.w3.org/2000/svg" xmlns:xlink="http://www.w3.org/1999/xlink" version="1.1"><path d="M0 529L21.5 526.8C43 524.7 86 520.3 128.8 516.5C171.7 512.7 214.3 509.3 257.2 512.7C300 516 343 526 385.8 532C428.7 538 471.3 540 514.2 535.7C557 531.3 600 520.7 642.8 515.7C685.7 510.7 728.3 511.3 771.2 510.5C814 509.7 857 507.3 878.5 506.2L900 505L900 601L878.5 601C857 601 814 601 771.2 601C728.3 601 685.7 601 642.8 601C600 601 557 601 514.2 601C471.3 601 428.7 601 385.8 601C343 601 300 601 257.2 601C214.3 601 171.7 601 128.8 601C86 601 43 601 21.5 601L0 601Z" fill="#131eba"></path><path d="M0 521L21.5 525.5C43 530 86 539 128.8 540.8C171.7 542.7 214.3 537.3 257.2 533.3C300 529.3 343 526.7 385.8 526.2C428.7 525.7 471.3 527.3 514.2 531C557 534.7 600 540.3 642.8 542.8C685.7 545.3 728.3 544.7 771.2 541.5C814 538.3 857 532.7 878.5 529.8L900 527L900 601L878.5 601C857 601 814 601 771.2 601C728.3 601 685.7 601 642.8 601C600 601 557 601 514.2 601C471.3 601 428.7 601 385.8 601C343 601 300 601 257.2 601C214.3 601 171.7 601 128.8 601C86 601 43 601 21.5 601L0 601Z" fill="#15159a"></path><path d="M0 558L21.5 557.2C43 556.3 86 554.7 128.8 555.7C171.7 556.7 214.3 560.3 257.2 562.8C300 565.3 343 566.7 385.8 566.7C428.7 566.7 471.3 565.3 514.2 563C557 560.7 600 557.3 642.8 555.5C685.7 553.7 728.3 553.3 771.2 555.2C814 557 857 561 878.5 563L900 565L900 601L878.5 601C857 601 814 601 771.2 601C728.3 601 685.7 601 642.8 601C600 601 557 601 514.2 601C471.3 601 428.7 601 385.8 601C343 601 300 601 257.2 601C214.3 601 171.7 601 128.8 601C86 601 43 601 21.5 601L0 601Z" fill="#130b7c"></path><path d="M0 575L21.5 576.8C43 578.7 86 582.3 128.8 583.7C171.7 585 214.3 584 257.2 582.3C300 580.7 343 578.3 385.8 576.8C428.7 575.3 471.3 574.7 514.2 572.8C557 571 600 568 642.8 569.2C685.7 570.3 728.3 575.7 771.2 577.7C814 579.7 857 578.3 878.5 577.7L900 577L900 601L878.5 601C857 601 814 601 771.2 601C728.3 601 685.7 601 642.8 601C600 601 557 601 514.2 601C471.3 601 428.7 601 385.8 601C343 601 300 601 257.2 601C214.3 601 171.7 601 128.8 601C86 601 43 601 21.5 601L0 601Z" fill="#0e0460"></path></svg>