<svg id="visual" viewBox="0 0 900 600" width="900" height="600" xmlns="http://www.w3.org/2000/svg" xmlns:xlink="http://www.w3.org/1999/xlink" version="1.1"><path d="M404 600L424.2 580C444.3 560 484.7 520 469.5 480C454.3 440 383.7 400 378.8 360C374 320 435 280 504.3 240C573.7 200 651.3 160 679.7 120C708 80 687 40 676.5 20L666 0L900 0L900 20C900 40 900 80 900 120C900 160 900 200 900 240C900 280 900 320 900 360C900 400 900 440 900 480C900 520 900 560 900 580L900 600Z" fill="#0066FF" stroke-linecap="round" stroke-linejoin="miter"></path></svg>