<svg id="visual" viewBox="0 0 900 600" width="900" height="600" xmlns="http://www.w3.org/2000/svg" xmlns:xlink="http://www.w3.org/1999/xlink" version="1.1"><path d="M0 498L21.5 505.5C43 513 86 528 128.8 544.2C171.7 560.3 214.3 577.7 257.2 584.7C300 591.7 343 588.3 385.8 578C428.7 567.7 471.3 550.3 514.2 547.2C557 544 600 555 642.8 563.7C685.7 572.3 728.3 578.7 771.2 578.2C814 577.7 857 570.3 878.5 566.7L900 563L900 601L878.5 601C857 601 814 601 771.2 601C728.3 601 685.7 601 642.8 601C600 601 557 601 514.2 601C471.3 601 428.7 601 385.8 601C343 601 300 601 257.2 601C214.3 601 171.7 601 128.8 601C86 601 43 601 21.5 601L0 601Z" fill="#4125f8" stroke-linecap="round" stroke-linejoin="miter"></path></svg>